<svg width="42" height="42" viewBox="0 0 42 42" fill="none" xmlns="http://www.w3.org/2000/svg">
<circle cx="21" cy="21" r="20.1" stroke="#313131" strokeWidth="1.8"/>
<path d="M30.1 21C30.1 26.6955 28.9988 31.8076 27.2585 35.4623C25.4862 39.1841 23.2137 41.1 21 41.1C18.7863 41.1 16.5138 39.1841 14.7415 35.4623C13.0012 31.8076 11.9 26.6955 11.9 21C11.9 15.3045 13.0012 10.1924 14.7415 6.5377C16.5138 2.8159 18.7863 0.9 21 0.9C23.2137 0.9 25.4862 2.8159 27.2585 6.5377C28.9988 10.1924 30.1 15.3045 30.1 21Z" stroke="#313131" strokeWidth="1.8"/>
<path d="M21 30.1C15.3045 30.1 10.1924 28.9988 6.5377 27.2585C2.8159 25.4862 0.900001 23.2137 0.900001 21C0.900001 18.7863 2.8159 16.5138 6.5377 14.7415C10.1924 13.0012 15.3045 11.9 21 11.9C26.6955 11.9 31.8076 13.0012 35.4623 14.7415C39.1841 16.5138 41.1 18.7863 41.1 21C41.1 23.2137 39.1841 25.4862 35.4623 27.2585C31.8076 28.9988 26.6955 30.1 21 30.1Z" stroke="#313131" strokeWidth="1.8"/>
</svg>
