<svg width="583" height="583" viewBox="0 0 583 583" fill="none" xmlns="http://www.w3.org/2000/svg">
<g filter="url(#filter0_d_1076_4708)">
<path d="M291.5 65C335.506 65 378.524 78.0494 415.114 102.498C451.704 126.947 480.223 161.696 497.063 202.353C513.904 243.009 518.31 287.747 509.725 330.908C501.14 374.068 479.948 413.714 448.831 444.831C417.714 475.948 378.068 497.14 334.908 505.725C291.747 514.31 247.009 509.904 206.353 493.063C165.696 476.223 130.947 447.704 106.498 411.114C82.0494 374.524 69 331.506 69 287.5L291.5 287.5L291.5 65Z" fill="#333131"/>
</g>
<defs>
<filter id="filter0_d_1076_4708" x="0.799999" y="0.799999" width="581.4" height="581.4" filterUnits="userSpaceOnUse" color-interpolation-filters="sRGB">
<feFlood flood-opacity="0" result="BackgroundImageFix"/>
<feColorMatrix in="SourceAlpha" type="matrix" values="0 0 0 0 0 0 0 0 0 0 0 0 0 0 0 0 0 0 127 0" result="hardAlpha"/>
<feMorphology radius="14" operator="dilate" in="SourceAlpha" result="effect1_dropShadow_1076_4708"/>
<feOffset dy="4"/>
<feGaussianBlur stdDeviation="27.1"/>
<feComposite in2="hardAlpha" operator="out"/>
<feColorMatrix type="matrix" values="0 0 0 0 0 0 0 0 0 0 0 0 0 0 0 0 0 0 0.25 0"/>
<feBlend mode="normal" in2="BackgroundImageFix" result="effect1_dropShadow_1076_4708"/>
<feBlend mode="normal" in="SourceGraphic" in2="effect1_dropShadow_1076_4708" result="shape"/>
</filter>
</defs>
</svg>
